PathFileType  4	(X/Y/Z) C:\Users\antoi\Documents\MyRepositories\mobilecap\ResultsAnalysis
DataRate	CameraRate	NumFrames	NumMarkers	Units	OrigDataRate	OrigDataStartFrame	OrigNumFrames
100.0	100.0	4	51	mm	100.0	1	245
Frame#	Time	r_knee			r_shank_antsup			r_ankle			r_calc			r_5meta			r_toe			L_knee			L_shank_antsup			L_ankle			L_calc			L_5meta			L_toe			r_sh2			r_sh3			r_sh4			L_sh2			L_sh3			r_thigh1			r_thigh2			r_thigh3			r_thigh4			r_thigh5			L_thigh1			L_thigh2			L_thigh3			L_thigh4			r.ASIS			r.PSIS			L.ASIS			L.PSIS			C7			R_Shoulder			L_Shoulder			R_Sternum			L_Sternum			R_humerus			R_elbow_med			R_elbow_lat			R_forearm			R_wrist_radius			R_wrist_ulna			L_humerus			L_elbow_med			L_elbow_lat			L_forearm			L_wrist_radius			L_wrist_ulna			R_HJC			L_HJC			R_HJC_reg			L_HJC_reg			
		X1	Y1	Z1	X2	Y2	Z2	X3	Y3	Z3	X4	Y4	Z4	X5	Y5	Z5	X6	Y6	Z6	X7	Y7	Z7	X8	Y8	Z8	X9	Y9	Z9	X10	Y10	Z10	X11	Y11	Z11	X12	Y12	Z12	X13	Y13	Z13	X14	Y14	Z14	X15	Y15	Z15	X16	Y16	Z16	X17	Y17	Z17	X18	Y18	Z18	X19	Y19	Z19	X20	Y20	Z20	X21	Y21	Z21	X22	Y22	Z22	X23	Y23	Z23	X24	Y24	Z24	X25	Y25	Z25	X26	Y26	Z26	X27	Y27	Z27	X28	Y28	Z28	X29	Y29	Z29	X30	Y30	Z30	X31	Y31	Z31	X32	Y32	Z32	X33	Y33	Z33	X34	Y34	Z34	X35	Y35	Z35	X36	Y36	Z36	X37	Y37	Z37	X38	Y38	Z38	X39	Y39	Z39	X40	Y40	Z40	X41	Y41	Z41	X42	Y42	Z42	X43	Y43	Z43	X44	Y44	Z44	X45	Y45	Z45	X46	Y46	Z46	X47	Y47	Z47	X48	Y48	Z48	X49	Y49	Z49	X50	Y50	Z50	X51	Y51	Z51	

1	0.00000000	-1104.06857	849.94355	-417.16942	-1087.83086	720.63090	-428.26877	-1223.89001	405.39911	-432.23653	-1291.53137	372.75124	-478.98404	-1092.96107	344.81487	-388.02476	-1055.22486	366.42869	-462.82691	-1142.85191	844.70112	-740.56900	-1110.20779	733.17642	-725.97431	-1236.64502	404.65929	-723.03515	-1299.23602	375.10702	-672.21663	-1098.20153	344.87731	-757.55718	-1062.89148	368.06522	-690.00413	-1105.99625	608.57843	-452.24292	-1148.04882	719.28573	-378.17391	-1157.37969	602.11854	-385.00765	-1191.81151	744.05821	-764.85732	-1187.24677	623.09656	-777.71172	-998.83771	1082.90766	-433.65305	-1006.47908	972.12052	-448.88280	-1032.92837	943.73360	-394.11792	-1081.10746	1075.30743	-352.85149	-1084.16091	957.95799	-378.76895	-1052.55822	1101.28980	-762.11103	-1050.30164	961.53655	-750.13734	-1163.69945	1092.61737	-793.70403	-1160.79670	954.41028	-768.86185	-1030.20794	1354.13747	-432.46065	-1240.42448	1397.19884	-506.50400	-1041.08663	1348.16379	-699.68404	-1243.49744	1393.00696	-612.12066	-1169.46031	1896.36911	-573.04001	-1093.34787	1817.89286	-386.72220	-1097.33051	1830.03227	-749.28196	-1036.47457	1804.16257	-548.22819	-1037.31934	1801.00884	-590.67375	-1081.59168	1647.06616	-313.71962	-1180.88276	1425.42918	-339.35604	-1138.98011	1452.02777	-270.31597	-1037.58205	1308.55848	-279.36468	-997.34140	1192.84285	-277.73084	-1021.91782	1182.09708	-245.77317	-1093.36225	1654.59466	-831.02319	-1194.75699	1451.18357	-800.17166	-1155.45636	1463.44452	-869.39709	-1057.68944	1328.48466	-839.76239	-1021.23825	1215.82641	-856.43730	-1051.60602	1208.82800	-891.35866	-1118.28627	1277.73375	-463.77351	-1124.59036	1262.00243	-676.49136	-1111.62897	1279.14744	-465.30941	-1116.75977	1272.14842	-641.65355	
2	0.01000000	-1103.14257	849.60522	-417.44595	-1086.70304	720.15155	-428.56643	-1223.91995	405.38186	-432.29826	-1291.55000	372.63706	-478.93630	-1092.97889	344.85307	-388.07074	-1055.26751	366.42387	-462.87222	-1141.70407	844.24230	-740.42393	-1109.21820	732.75070	-726.13725	-1236.60748	404.62156	-723.10025	-1299.00059	375.67385	-673.18498	-1098.21011	344.88947	-757.55078	-1062.91562	368.07568	-689.94626	-1105.49715	607.45333	-452.32592	-1147.17333	719.05831	-378.29460	-1156.95781	602.03409	-384.90205	-1190.77849	744.03595	-765.19131	-1186.53711	622.81680	-777.72251	-998.30422	1082.47366	-433.93030	-1005.55447	971.92391	-449.02821	-1031.85382	943.37201	-394.35743	-1080.50754	1075.02123	-352.87789	-1083.13727	957.41842	-379.03566	-1050.96344	1100.81147	-762.34145	-1049.26480	961.27638	-750.05925	-1163.06224	1092.04069	-793.25025	-1159.88222	953.95383	-768.88522	-1029.81062	1353.61123	-432.76142	-1240.05813	1397.53775	-506.07455	-1040.55933	1348.04166	-698.78318	-1242.85149	1393.45016	-611.23769	-1166.87239	1896.33121	-573.07222	-1091.28828	1817.55413	-386.40961	-1095.13074	1829.69922	-749.37289	-1034.29587	1803.19121	-548.31703	-1035.07580	1800.08315	-591.17605	-1080.42371	1646.87045	-313.31385	-1180.63009	1425.58497	-339.02448	-1138.84728	1452.08365	-269.87364	-1038.09546	1308.22816	-278.58082	-998.26042	1192.36691	-276.59479	-1023.03511	1181.71440	-244.63423	-1092.12995	1654.26440	-830.99051	-1194.45923	1451.26485	-800.26442	-1155.26979	1463.37354	-869.46918	-1057.89384	1328.13662	-840.03233	-1021.93309	1215.34595	-856.92016	-1052.23975	1208.46159	-891.57160	-1118.08566	1277.55653	-463.44068	-1124.52521	1262.15262	-676.17835	-1111.62022	1279.33950	-465.68039	-1116.28665	1272.51655	-641.23879	
3	0.02000000	-1101.94637	849.15538	-417.82805	-1085.73141	719.79809	-428.76132	-1223.88047	405.36371	-432.30987	-1291.56775	372.60266	-478.96660	-1093.00606	344.84679	-388.09642	-1055.28105	366.39777	-462.89560	-1140.56209	843.90550	-740.49083	-1108.24072	732.30222	-726.16351	-1236.55179	404.55979	-723.15374	-1299.09411	375.44600	-672.90835	-1098.21184	344.89766	-757.54488	-1062.93745	368.10547	-689.92872	-1104.91347	606.78584	-452.48912	-1146.19836	718.64457	-378.50585	-1156.31549	601.84801	-384.94171	-1189.71018	743.82423	-765.42792	-1185.77564	622.68446	-777.76260	-997.66820	1082.20278	-434.07490	-1004.74387	971.61669	-449.24065	-1030.90134	943.07818	-394.51626	-1079.78240	1074.56669	-352.95778	-1082.17138	957.04411	-379.12400	-1050.03848	1100.46884	-762.25059	-1048.28605	961.03139	-750.14381	-1162.32742	1091.53765	-793.08242	-1158.90555	953.53376	-769.05129	-1029.35258	1352.93527	-432.88995	-1238.92072	1397.55475	-506.54285	-1040.10332	1347.83378	-698.51674	-1242.24205	1393.78223	-610.89810	-1164.32933	1896.23480	-573.17602	-1089.13629	1817.23452	-386.36897	-1092.85781	1829.29189	-749.32072	-1032.15551	1802.49697	-548.49225	-1032.40624	1798.93406	-591.85782	-1079.21788	1646.55395	-313.08604	-1180.41585	1425.81604	-338.66919	-1138.68504	1452.18071	-269.43575	-1038.67876	1307.85749	-277.77397	-999.30455	1191.83601	-275.58060	-1024.20629	1181.29813	-243.66106	-1090.81900	1653.89870	-831.03170	-1194.12564	1451.39339	-800.48632	-1155.02661	1463.33458	-869.57258	-1058.07741	1327.75406	-840.30658	-1022.57152	1214.80044	-857.38628	-1052.90156	1208.01260	-891.82427	-1117.75553	1277.20177	-463.58460	-1124.21488	1262.15082	-676.34696	-1110.82130	1279.01282	-465.54594	-1116.40845	1272.67921	-640.82664	
4	0.03000000	-1100.56545	848.80841	-417.97296	-1084.85952	719.36588	-428.99224	-1223.80992	405.34496	-432.29291	-1291.58661	372.61427	-479.04659	-1093.03730	344.80659	-388.10391	-1055.27904	366.37687	-462.91940	-1139.45357	843.59637	-740.55334	-1107.26371	731.87438	-726.02806	-1236.48826	404.46626	-723.16633	-1299.30591	374.96953	-672.25432	-1098.21532	344.91814	-757.51986	-1062.95892	368.13188	-689.92402	-1104.29634	606.47633	-452.60619	-1145.09964	718.27427	-378.71973	-1155.63960	601.55523	-385.14850	-1188.63118	743.48679	-765.53293	-1184.93985	622.60688	-777.86099	-997.01947	1082.05613	-434.24449	-1004.03137	971.31712	-449.50456	-1029.97478	942.79890	-394.70936	-1079.00019	1074.11120	-353.07628	-1081.25594	956.73473	-379.12842	-1049.50337	1100.24544	-762.16463	-1047.40538	960.75589	-750.21064	-1161.48953	1091.14591	-793.30358	-1157.93426	953.19992	-769.25395	-1028.80285	1352.27736	-432.85280	-1237.69907	1397.41490	-507.26766	-1039.62155	1347.49941	-698.67565	-1241.61684	1393.91281	-610.97040	-1161.64402	1896.08298	-573.20257	-1086.86356	1816.87424	-386.48098	-1090.46484	1828.83807	-749.20432	-1029.89449	1801.86496	-548.59655	-1029.69151	1797.97656	-592.26578	-1077.94967	1646.15712	-312.95013	-1180.22409	1426.08058	-338.31610	-1138.51486	1452.28594	-269.00919	-1039.27516	1307.46953	-276.94444	-1000.43255	1191.26457	-274.64661	-1025.39692	1180.84083	-242.82012	-1089.39285	1653.46629	-831.00273	-1193.71053	1451.56455	-800.73877	-1154.70352	1463.34665	-869.72808	-1058.25275	1327.34686	-840.60114	-1023.16330	1214.25545	-857.77143	-1053.61486	1207.58576	-892.30371	-1117.34759	1276.79970	-463.89904	-1123.74734	1261.97555	-676.67921	-1109.89119	1278.45925	-465.26307	-1116.51616	1272.53575	-640.65537	
